<svg width="23" height="23" viewBox="0 0 23 23" fill="none" xmlns="http://www.w3.org/2000/svg">
<path d="M0 0H18.1546C20.4702 0 22.3474 1.8772 22.3474 4.19285V18.1546C22.3474 20.4702 20.4702 22.3474 18.1546 22.3474H4.19284C1.8772 22.3474 0 20.4702 0 18.1546V0Z" fill="#3361E0"/>
<path fill-rule="evenodd" clip-rule="evenodd" d="M18.1546 1.04821H1.04821V18.1546C1.04821 19.8913 2.45611 21.2992 4.19284 21.2992H18.1546C19.8913 21.2992 21.2992 19.8913 21.2992 18.1546V4.19285C21.2992 2.45611 19.8913 1.04821 18.1546 1.04821ZM0 0V18.1546C0 20.4702 1.8772 22.3474 4.19284 22.3474H18.1546C20.4702 22.3474 22.3474 20.4702 22.3474 18.1546V4.19285C22.3474 1.8772 20.4702 0 18.1546 0H0Z" fill="#3361E0"/>
<path d="M3.7583 2.70984L13.1922 2.70984L13.1922 14.7643C13.1922 17.3694 11.0804 19.4812 8.47525 19.4812C5.87015 19.4812 3.7583 17.3694 3.7583 14.7643L3.7583 2.70984Z" fill="white"/>
<path fill-rule="evenodd" clip-rule="evenodd" d="M12.144 3.75805L4.80651 3.75805L4.80651 14.7643C4.80651 16.7905 6.44906 18.433 8.47525 18.433C10.5014 18.433 12.144 16.7905 12.144 14.7643L12.144 3.75805ZM3.7583 2.70984L3.7583 14.7643C3.7583 17.3694 5.87015 19.4812 8.47525 19.4812C11.0804 19.4812 13.1922 17.3694 13.1922 14.7643L13.1922 2.70984L3.7583 2.70984Z" fill="#3361E0"/>
<path d="M3.7583 12.1435V2.70959H15.8127C18.4178 2.70959 20.5297 4.82144 20.5297 7.42654C20.5297 10.0316 18.4178 12.1435 15.8127 12.1435H3.7583Z" fill="white"/>
<path fill-rule="evenodd" clip-rule="evenodd" d="M4.80651 3.7578V11.0953H15.8127C17.8389 11.0953 19.4815 9.45273 19.4815 7.42654C19.4815 5.40035 17.8389 3.7578 15.8127 3.7578H4.80651ZM3.7583 12.1435H15.8127C18.4178 12.1435 20.5297 10.0316 20.5297 7.42654C20.5297 4.82144 18.4178 2.70959 15.8127 2.70959H3.7583V12.1435Z" fill="#3361E0"/>
</svg>
