<svg width="36" height="36" viewBox="0 0 36 36" fill="none" xmlns="http://www.w3.org/2000/svg">
<rect width="36" height="36" rx="4" fill="#3361E0"/>
<path d="M20.7933 11.3334H15.2066C12.78 11.3334 11.3333 12.78 11.3333 15.2067V20.7867C11.3333 23.22 12.78 24.6667 15.2066 24.6667H20.7866C23.2133 24.6667 24.66 23.22 24.66 20.7934V15.2067C24.6666 12.78 23.22 11.3334 20.7933 11.3334ZM21.2533 17.6867C21.2533 17.9467 21.0466 18.1534 20.7866 18.1534C20.5266 18.1534 20.32 17.9467 20.32 17.6867V17.5667L18.5066 19.38C18.4066 19.48 18.2733 19.5267 18.1333 19.5134C17.9933 19.5 17.8666 19.4267 17.7933 19.3067L17.1133 18.2934L15.5266 19.88C15.4333 19.9734 15.32 20.0134 15.2 20.0134C15.08 20.0134 14.96 19.9667 14.8733 19.88C14.6933 19.7 14.6933 19.4067 14.8733 19.22L16.86 17.2334C16.96 17.1334 17.0933 17.0867 17.2333 17.1C17.3733 17.1134 17.5 17.1867 17.5733 17.3067L18.2533 18.32L19.66 16.9134H19.54C19.28 16.9134 19.0733 16.7067 19.0733 16.4467C19.0733 16.1867 19.28 15.98 19.54 15.98H20.78C20.84 15.98 20.9 15.9934 20.96 16.0134C21.0733 16.06 21.1666 16.1534 21.2133 16.2667C21.24 16.3267 21.2466 16.3867 21.2466 16.4467V17.6867H21.2533Z" fill="white"/>
</svg>
